<?xml version="1.0" standalone="no"?>
<!DOCTYPE svg PUBLIC "-//W3C//DTD SVG 20010904//EN"
 "http://www.w3.org/TR/2001/REC-SVG-20010904/DTD/svg10.dtd">
<svg version="1.0" xmlns="http://www.w3.org/2000/svg"
 width="940.000000pt" height="940.000000pt" viewBox="0 0 940.000000 940.000000"
 preserveAspectRatio="xMidYMid meet">
<metadata>
Created by potrace 1.11, written by Peter Selinger 2001-2013
</metadata>
<g transform="translate(0.000000,940.000000) scale(0.100000,-0.100000)"
fill="#000000" stroke="none">
<path d="M1315 7081 c-181 -105 -368 -213 -530 -306 -88 -51 -205 -118 -260
-150 -55 -32 -118 -68 -140 -81 -22 -12 -116 -67 -210 -121 l-170 -98 0 -1627
0 -1627 85 -49 c47 -27 101 -59 120 -70 19 -11 91 -52 160 -92 69 -40 145 -84
170 -98 25 -14 62 -36 82 -49 21 -12 39 -23 41 -23 2 0 76 -42 163 -93 87 -51
166 -96 174 -100 8 -4 31 -17 50 -28 71 -43 359 -209 362 -209 2 0 3 365 3
812 l0 812 115 66 c63 37 192 111 285 165 94 54 186 107 205 117 19 11 40 24
45 28 6 4 35 21 65 37 30 17 105 59 166 95 61 35 117 68 125 71 8 4 35 20 60
35 25 15 112 65 193 111 115 67 144 87 134 96 -7 7 -103 64 -213 127 -238 137
-656 377 -705 406 -19 12 -46 27 -60 35 -91 51 -191 109 -293 169 l-118 70 67
39 c36 22 68 39 69 39 2 0 39 21 82 46 43 26 92 55 108 64 17 9 75 43 130 75
55 32 116 67 135 78 19 11 109 62 200 115 91 52 255 147 366 211 111 64 211
123 224 132 24 16 0 31 -440 281 -95 55 -876 506 -915 529 l-30 18 -100 -58z"/>
<path d="M4585 7072 c-60 -35 -128 -74 -150 -87 -22 -12 -186 -107 -365 -210
-179 -104 -338 -195 -355 -204 -16 -9 -32 -19 -35 -22 -3 -3 -10 -8 -16 -10
-5 -2 -92 -51 -192 -109 l-182 -105 0 -1626 0 -1627 106 -61 c58 -34 119 -70
137 -80 18 -10 104 -60 192 -111 88 -51 176 -101 195 -112 19 -11 64 -37 100
-58 36 -21 81 -47 100 -58 19 -10 152 -87 296 -170 143 -83 267 -154 275 -157
11 -4 197 97 359 194 16 10 412 239 484 280 22 12 66 38 96 56 30 18 75 44
100 57 25 14 120 69 213 123 l167 97 0 815 0 815 -32 -20 c-31 -18 -152 -88
-538 -310 -91 -52 -219 -126 -285 -165 -66 -39 -136 -79 -155 -89 -19 -10 -42
-23 -50 -28 -14 -10 -207 -121 -280 -162 -19 -11 -40 -24 -47 -30 -6 -5 -13
-5 -16 -1 -2 4 -4 734 -4 1621 0 887 -2 1614 -4 1615 -2 2 -53 -25 -114 -61z"/>
<path d="M7950 7118 c-42 -25 -291 -168 -590 -341 -300 -174 -385 -223 -401
-231 -8 -4 -23 -12 -34 -19 -11 -7 -93 -54 -183 -106 -89 -51 -162 -98 -163
-105 -3 -46 -1 -1617 2 -1620 2 -2 146 -86 319 -186 173 -100 416 -241 540
-313 124 -71 241 -139 260 -149 19 -11 90 -52 158 -91 134 -77 131 -70 52
-114 -35 -20 -109 -63 -497 -286 -111 -64 -223 -128 -250 -143 -26 -15 -55
-33 -64 -40 -8 -8 -18 -14 -22 -14 -5 0 -335 -189 -367 -210 -8 -6 -24 -14
-35 -19 -11 -6 -38 -21 -59 -34 l-39 -24 119 -70 c65 -39 297 -173 514 -298
405 -233 437 -252 647 -374 67 -39 124 -71 128 -71 3 0 77 41 163 91 86 51
177 103 202 117 25 14 86 48 135 77 50 29 108 63 131 76 23 13 92 53 153 89
62 36 129 74 150 86 79 44 466 268 471 272 3 2 5 368 5 813 0 710 -2 812 -15
823 -8 7 -105 65 -215 128 -110 64 -216 125 -235 137 -19 11 -42 24 -50 28 -8
4 -55 31 -104 60 -49 29 -90 53 -91 53 -2 0 -64 36 -139 80 -76 44 -139 80
-140 80 -2 0 -34 19 -72 41 -37 23 -88 53 -113 67 -25 14 -59 33 -76 43 -16
10 -56 32 -87 50 -32 17 -58 35 -58 39 0 4 21 19 48 34 26 14 54 31 62 36 14
9 81 48 155 90 17 9 134 77 260 150 127 73 250 144 275 158 25 14 74 42 109
64 34 21 65 38 67 38 2 0 32 17 66 38 35 21 70 42 78 46 8 4 24 12 35 19 12 7
71 41 132 76 l112 64 -28 16 c-26 15 -349 201 -422 244 -40 23 -355 205 -396
228 -56 32 -91 52 -328 189 -126 73 -232 134 -235 135 -3 1 -21 -6 -40 -17z"/>
</g>
</svg>
